<svg width="40" height="40" viewBox="0 0 40 40" fill="none" xmlns="http://www.w3.org/2000/svg">
<rect width="40" height="40" fill="#9BB0CC" fill-opacity="0.24"/>
<path fill-rule="evenodd" clip-rule="evenodd" d="M18 13C17.4477 13 17 13.4477 17 14V16H14C13.4477 16 13 16.4477 13 17V25C13 25.5523 13.4477 26 14 26H22C22.5523 26 23 25.5523 23 25V17C23 16.4477 22.5523 16 22 16H18V14H26V22H23.5V23H26C26.5523 23 27 22.5523 27 22V14C27 13.4477 26.5523 13 26 13H18ZM14 25V17H22V25H14Z" fill="#16181A"/>
</svg>
